<svg width="70" height="74" viewBox="0 0 70 74" fill="none" xmlns="http://www.w3.org/2000/svg">
<g clip-path="url(#clip0_260_10)">
<path fill-rule="evenodd" clip-rule="evenodd" d="M54.1885 8.4069V13.062H61.5591H61.5652V13.0741C63.8931 13.0801 66.0033 14.0195 67.527 15.5431C69.0386 17.0547 69.9819 19.1444 69.9879 21.4569H70V21.4689V65.5931V65.5991H69.9879C69.9819 67.9116 69.0386 70.0133 67.5089 71.5369C65.9912 73.0425 63.8931 73.9819 61.5712 73.988V74H61.5591H24.2524H24.2464V73.988C21.9245 73.9819 19.8082 73.0425 18.2845 71.5189C16.7729 70.0073 15.8297 67.9176 15.8236 65.6051H15.8115V65.5931V55.7108H8.44087H8.43483V55.6987C6.11298 55.6927 3.99672 54.7533 2.47301 53.2297C0.961389 51.7181 0.0181394 49.6284 0.0120929 47.3159H0V47.3039V8.4069V8.40088H0.0120929C0.0181394 6.08236 0.967435 3.98063 2.49115 2.46305C4.00881 0.95752 6.10694 0.0180664 8.42878 0.0120443V0H8.44087H45.7476H45.7536V0.0120443C48.0815 0.0180664 50.1918 0.95752 51.7155 2.48112C53.2271 3.99268 54.1703 6.08236 54.1764 8.39486H54.1885V8.4069ZM47.7913 13.062V8.4069V8.39486H47.8034C47.8034 7.84684 47.5676 7.34098 47.1927 6.96761C46.8239 6.60026 46.3099 6.3654 45.7597 6.3654V6.37744H45.7536H8.44692H8.43483V6.3654C7.8846 6.3654 7.3767 6.60026 7.00181 6.97363C6.63298 7.34098 6.39717 7.85286 6.39717 8.40088H6.40926V8.4069V47.3039V47.3159H6.39717C6.39717 47.8639 6.63298 48.3698 7.00786 48.7432C7.3767 49.1105 7.89065 49.3454 8.44087 49.3454V49.3333H8.44692H15.8176V21.4689V21.4629H15.8297C15.8357 19.1444 16.785 17.0426 18.3087 15.5251C19.8264 14.0195 21.9245 13.0801 24.2464 13.0741V13.062H24.2584H47.7913ZM63.5968 65.5931V21.4689V21.4569H63.6089C63.6089 20.9089 63.3731 20.403 62.9982 20.0296C62.6294 19.6623 62.1154 19.4274 61.5652 19.4274V19.4395H61.5591H24.2524H24.2403V19.4274C23.6901 19.4274 23.1822 19.6623 22.8073 20.0356C22.4385 20.403 22.2026 20.9149 22.2026 21.4629H22.2147V21.4689V65.5931V65.6051H22.2026C22.2026 66.1532 22.4385 66.659 22.8133 67.0324C23.1822 67.3997 23.6961 67.6346 24.2464 67.6346V67.6226H24.2524H61.5591H61.5712V67.6346C62.1215 67.6346 62.6294 67.3997 63.0042 67.0264C63.3731 66.659 63.6089 66.1471 63.6089 65.5991H63.5968V65.5931Z" fill="white"/>
</g>
<defs>
<clipPath id="clip0_260_10">
<rect width="70" height="74" fill="white"/>
</clipPath>
</defs>
</svg>
