<svg width="284" height="253" viewBox="0 0 284 253" fill="none" xmlns="http://www.w3.org/2000/svg">
<g filter="url(#filter0_d_193_222)">
<path d="M260.287 79.8418H254.373" stroke="#9C2C60" stroke-width="6" stroke-miterlimit="10"/>
<path d="M242.543 79.8418H35.543" stroke="#9C2C60" stroke-width="6" stroke-miterlimit="10" stroke-dasharray="12 12"/>
<path d="M29.6291 79.8418H23.7148" stroke="#9C2C60" stroke-width="6" stroke-miterlimit="10"/>
<path d="M26.6421 241.214C15.7894 241.214 6.9574 232.382 6.9574 221.53V102.327C18.1748 100.888 26.6717 91.2182 26.6717 79.8529C26.6717 68.4876 18.1748 58.8079 6.91797 57.3589L6.9574 2.92773L27.4208 2.95731C28.9388 11.188 36.1543 17.1713 44.5525 17.1713C52.9508 17.1713 60.1761 11.1782 61.7237 2.92773L91.1374 2.95731C92.6948 11.119 99.9004 17.0629 108.249 17.0629C116.598 17.0629 123.804 11.119 125.401 2.92773L154.815 2.95731C156.323 11.188 163.548 17.1713 171.946 17.1713C180.345 17.1713 187.57 11.1782 189.117 2.92773L218.502 2.95731C220.01 11.188 227.235 17.1713 235.633 17.1713C244.032 17.1713 251.257 11.1782 252.804 2.92773L277.063 2.95731L277.033 57.3589C265.816 58.798 257.319 68.4679 257.319 79.843C257.319 91.2182 265.816 100.878 277.073 102.327L277.033 221.53C277.033 232.382 268.201 241.214 257.349 241.214H26.6421Z" fill="#E94190"/>
<path d="M274.086 5.91429V54.9043C262.681 57.6051 254.371 67.8861 254.371 79.8429C254.371 91.7996 262.681 102.09 274.086 104.781V221.529C274.086 230.756 266.584 238.257 257.358 238.257H26.6419C17.4156 238.257 9.91429 230.756 9.91429 221.529V104.781C21.319 102.081 29.6286 91.7996 29.6286 79.8429C29.6286 67.8861 21.319 57.5953 9.91429 54.9043V5.91429H25.0943C27.7557 14.283 35.5823 20.1283 44.5621 20.1283C53.542 20.1283 61.3587 14.283 64.03 5.91429H88.8306C91.5314 14.2239 99.3383 20.0199 108.259 20.0199C117.18 20.0199 124.987 14.214 127.687 5.91429H152.488C155.149 14.283 162.976 20.1283 171.956 20.1283C180.936 20.1283 188.752 14.283 191.424 5.91429H216.185C218.846 14.283 226.673 20.1283 235.653 20.1283C244.633 20.1283 252.449 14.283 255.121 5.91429H274.096M277.072 0H252.784C251.375 0 250.172 1.00543 249.916 2.38543C248.654 9.11786 242.75 14.214 235.653 14.214C228.556 14.214 222.651 9.11786 221.389 2.38543C221.133 1.00543 219.931 0 218.521 0H189.097C187.688 0 186.485 1.00543 186.229 2.38543C184.967 9.11786 179.063 14.214 171.966 14.214C164.869 14.214 158.964 9.11786 157.702 2.38543C157.446 1.00543 156.244 0 154.834 0H125.391C123.991 0 122.788 0.995572 122.522 2.36571C121.221 9.05871 115.346 14.1056 108.279 14.1056C101.211 14.1056 95.3363 9.05871 94.0351 2.36571C93.769 0.995572 92.5664 0 91.1667 0H61.7234C60.3139 0 59.1113 1.00543 58.855 2.38543C57.5933 9.11786 51.6889 14.214 44.5917 14.214C37.4946 14.214 31.5901 9.11786 30.3284 2.38543C30.0721 1.00543 28.8696 0 27.46 0H6.92757C5.311 0 4 1.311 4 2.92757V57.3587C4 58.8274 5.07443 60.099 6.53329 60.2863C16.2229 61.5283 23.7143 69.8083 23.7143 79.8429C23.7143 89.8774 16.2229 98.1476 6.53329 99.3994C5.07443 99.5867 4 100.858 4 102.327V221.529C4 234.038 14.1331 244.171 26.6419 244.171H257.358C269.867 244.171 280 234.038 280 221.529V102.327C280 100.858 278.926 99.5867 277.467 99.3994C267.777 98.1574 260.286 89.8774 260.286 79.8429C260.286 69.8083 267.777 61.5381 277.467 60.2863C278.926 60.099 280 58.8274 280 57.3587V2.92757C280 1.311 278.689 0 277.072 0Z" fill="#9C2C60"/>
<path d="M23.7148 79.8418H29.6291" stroke="#9C2C60" stroke-width="6" stroke-miterlimit="10"/>
<path d="M41.459 79.8418H248.459" stroke="#9C2C60" stroke-width="6" stroke-miterlimit="10" stroke-dasharray="12 12"/>
<path d="M254.373 79.8418H260.287" stroke="#9C2C60" stroke-width="6" stroke-miterlimit="10"/>
</g>
<defs>
<filter id="filter0_d_193_222" x="0" y="0" width="284" height="252.172" filterUnits="userSpaceOnUse" color-interpolation-filters="sRGB">
<feFlood flood-opacity="0" result="BackgroundImageFix"/>
<feColorMatrix in="SourceAlpha" type="matrix" values="0 0 0 0 0 0 0 0 0 0 0 0 0 0 0 0 0 0 127 0" result="hardAlpha"/>
<feOffset dy="4"/>
<feGaussianBlur stdDeviation="2"/>
<feComposite in2="hardAlpha" operator="out"/>
<feColorMatrix type="matrix" values="0 0 0 0 0 0 0 0 0 0 0 0 0 0 0 0 0 0 0.25 0"/>
<feBlend mode="normal" in2="BackgroundImageFix" result="effect1_dropShadow_193_222"/>
<feBlend mode="normal" in="SourceGraphic" in2="effect1_dropShadow_193_222" result="shape"/>
</filter>
</defs>
</svg>
