<svg width="32" height="28" viewBox="0 0 32 28" fill="none" xmlns="http://www.w3.org/2000/svg">
<path d="M22.4321 4.56877C20.4753 4.70016 18.7344 5.67619 17.5308 7.31152C17.2727 7.66346 16.8386 7.84177 16.4069 7.77138C15.9752 7.701 15.6186 7.39599 15.4848 6.9807C14.8584 5.05209 13.5163 3.58335 11.7027 2.84428C10.8768 2.50643 9.9923 2.33984 9.11246 2.33984C8.03554 2.33984 6.96331 2.59089 6.01543 3.08829C3.83342 4.2356 2.49607 6.3613 2.34356 8.92104C2.16994 11.8398 3.42283 17.7687 13.6501 24.9482C25.6159 21.3373 28.666 16.1005 29.4145 13.2757C30.0714 10.798 29.4661 8.36029 27.7533 6.58653C26.4019 5.19052 24.4029 4.43269 22.4297 4.57112L22.4321 4.56877Z" fill="#EE4D9B"/>
<path d="M29.4307 4.96511C27.6076 3.08108 24.9329 2.06751 22.2746 2.24582C20.2569 2.3819 18.4127 3.17259 16.9346 4.51229C15.9539 2.77842 14.4546 1.45045 12.5847 0.687921C10.1164 -0.318615 7.25872 -0.191919 4.9336 1.02578C2.05477 2.5391 0.217665 5.43905 0.0182352 8.78244C-0.188234 12.2291 1.1937 19.2021 12.756 27.1652C12.8967 27.2638 13.1243 27.3388 13.2932 27.367C13.3566 27.3764 13.4199 27.3834 13.4809 27.3834C13.5912 27.3834 13.7015 27.367 13.8071 27.3365C27.2839 23.4018 30.7821 17.2148 31.669 13.8761C32.5277 10.6383 31.6924 7.309 29.433 4.96746L29.4307 4.96511ZM29.4143 13.2731C28.6635 16.098 25.6133 21.3348 13.6499 24.9457C3.42028 17.7638 2.16973 11.8349 2.34336 8.91852C2.49586 6.35878 3.83556 4.23309 6.01522 3.08578C6.9631 2.58837 8.03298 2.33733 9.11225 2.33733C9.99209 2.33733 10.8766 2.50391 11.7025 2.84177C13.5161 3.58083 14.8582 5.05192 15.4846 6.97818C15.6184 7.39347 15.975 7.69848 16.4067 7.76887C16.8384 7.83925 17.2725 7.66094 17.5306 7.309C18.7342 5.67368 20.4751 4.69764 22.4318 4.56625C24.4027 4.42548 26.404 5.18566 27.7555 6.58167C29.4682 8.35543 30.0735 10.7932 29.4166 13.2708L29.4143 13.2731Z" fill="#231F20"/>
</svg>
