<svg width="215" height="215" viewBox="0 0 215 215" fill="none" xmlns="http://www.w3.org/2000/svg">
<g clip-path="url(#clip0_269_4)">
<path d="M93.3976 93.0469C93.4574 92.987 93.5123 92.9271 93.5672 92.8673C101.394 85.0401 114.05 84.9852 121.952 92.6977L181.926 32.7244C140.77 -8.24228 74.2312 -8.24228 33.075 32.7244L93.3976 93.0469Z" fill="#9C2C60" stroke="#7A224B" stroke-width="4" stroke-miterlimit="10"/>
<path d="M122.307 93.0464C130.019 100.948 129.964 113.6 122.137 121.432C122.077 121.492 122.017 121.546 121.957 121.601L182.28 181.924C223.247 140.768 223.247 74.2293 182.28 33.0731L122.307 93.0464Z" fill="#E94190" stroke="#7A224B" stroke-width="4" stroke-miterlimit="10"/>
<path d="M121.593 121.946C113.731 129.255 101.474 129.14 93.7517 121.602L33.075 182.279C74.2312 223.246 140.77 223.246 181.926 182.279L121.593 121.946Z" fill="#9C2C60" stroke="#7A224B" stroke-width="4" stroke-miterlimit="10"/>
<path d="M93.3975 121.247C85.8596 113.525 85.7449 101.268 93.0532 93.4056L32.7207 33.0731C-8.2459 74.2293 -8.2459 140.768 32.7207 181.924L93.3975 121.247Z" fill="#E94190" stroke="#7A224B" stroke-width="4" stroke-miterlimit="10"/>
<path d="M89.2468 42.4726V25.4563H87.2463C86.4831 25.4563 85.9094 25.2269 85.5252 24.7679C85.1411 24.309 84.9466 23.7602 84.9466 23.1167C84.9466 22.4731 85.1511 21.9493 85.5652 21.4804C85.9792 21.0115 86.5379 20.772 87.2463 20.772H92.0604C92.7637 20.772 93.3225 20.9965 93.7216 21.4405C94.1256 21.8895 94.3252 22.4632 94.3252 23.1715V42.4676C94.3252 43.3057 94.0907 43.9542 93.6218 44.4131C93.1529 44.8721 92.5443 45.1016 91.791 45.1016C91.0527 45.1016 90.444 44.8671 89.9601 44.3982C89.4812 43.9292 89.2418 43.2857 89.2418 42.4726H89.2468Z" fill="white"/>
<path d="M106.388 45.3164C104.248 45.3164 102.507 44.6978 101.165 43.4557C99.8179 42.2135 98.8601 40.6471 98.2814 38.7464C97.7028 36.8507 97.4134 34.8802 97.4134 32.8399C97.4134 30.7995 97.7028 28.829 98.2814 26.9333C98.8601 25.0376 99.8229 23.4662 101.165 22.224C102.512 20.9819 104.253 20.3633 106.388 20.3633C108.029 20.3633 109.431 20.7324 110.588 21.4708C111.746 22.2091 112.674 23.1868 113.367 24.3991C114.06 25.6113 114.564 26.9483 114.879 28.4099C115.193 29.8716 115.353 31.3482 115.353 32.8349C115.353 34.3015 115.193 35.7632 114.879 37.2199C114.564 38.6765 114.06 40.0185 113.367 41.2407C112.674 42.4629 111.746 43.4507 110.588 44.194C109.431 44.9373 108.029 45.3114 106.388 45.3114V45.3164ZM106.378 40.6969C107.426 40.6969 108.224 40.248 108.768 39.355C109.311 38.462 109.665 37.4294 109.825 36.262C109.985 35.0947 110.065 33.9523 110.065 32.8349C110.065 30.7696 109.825 28.9437 109.346 27.3573C108.867 25.771 107.875 24.9728 106.378 24.9728C104.876 24.9728 103.889 25.776 103.41 27.3873C102.931 28.9986 102.691 30.8145 102.691 32.8299C102.691 34.7804 102.936 36.5813 103.42 38.2276C103.904 39.8738 104.891 40.692 106.383 40.692L106.378 40.6969Z" fill="white"/>
<path d="M119.693 37.1404C118.84 37.1404 118.131 36.8311 117.562 36.2125C116.994 35.594 116.704 34.8656 116.704 34.0175C116.704 33.4638 116.834 32.945 117.093 32.4611C117.353 31.9772 117.707 31.5931 118.166 31.3087C118.625 31.0244 119.134 30.8797 119.693 30.8797C120.251 30.8797 120.745 31.0194 121.199 31.3037C121.658 31.5881 122.017 31.9722 122.277 32.4561C122.536 32.94 122.671 33.4638 122.671 34.0175C122.671 34.5663 122.541 35.0801 122.282 35.564C122.022 36.0479 121.663 36.4271 121.204 36.7114C120.745 36.9958 120.241 37.1354 119.693 37.1354V37.1404ZM119.693 35.1599C120.002 35.1599 120.246 35.0502 120.426 34.8307C120.605 34.6112 120.695 34.3368 120.695 34.0175C120.695 33.6983 120.605 33.4139 120.426 33.1894C120.246 32.9649 120.002 32.8552 119.693 32.8552C119.383 32.8552 119.129 32.9649 118.949 33.1894C118.77 33.4139 118.68 33.6883 118.68 34.0175C118.68 34.3468 118.77 34.6112 118.949 34.8307C119.129 35.0502 119.378 35.1599 119.693 35.1599ZM118.994 43.466L125.405 31.3786C125.539 31.1341 125.659 30.9695 125.779 30.8847C125.893 30.8049 126.068 30.76 126.293 30.76C126.482 30.76 126.667 30.8049 126.841 30.8997C127.016 30.9944 127.161 31.1241 127.27 31.2938C127.38 31.4634 127.435 31.643 127.435 31.8475C127.435 32.0371 127.385 32.2266 127.285 32.4262L120.78 44.6084C120.596 44.8678 120.461 45.0374 120.371 45.1222C120.281 45.2071 120.122 45.252 119.902 45.252C119.648 45.252 119.403 45.1422 119.164 44.9277C118.924 44.7082 118.805 44.4637 118.805 44.1844C118.805 43.9749 118.869 43.7354 118.994 43.466ZM126.512 45.1372C125.659 45.1372 124.951 44.8279 124.382 44.2093C123.813 43.5907 123.524 42.8624 123.524 42.0143C123.524 41.4606 123.654 40.9418 123.913 40.4579C124.172 39.974 124.527 39.5899 124.986 39.3055C125.444 39.0211 125.953 38.8765 126.512 38.8765C127.071 38.8765 127.565 39.0162 128.019 39.3005C128.478 39.5849 128.837 39.969 129.096 40.4529C129.356 40.9368 129.49 41.4606 129.49 42.0143C129.49 42.5681 129.361 43.0769 129.101 43.5608C128.842 44.0447 128.483 44.4238 128.024 44.7082C127.565 44.9925 127.061 45.1322 126.512 45.1322V45.1372ZM126.512 43.1617C126.821 43.1617 127.066 43.052 127.245 42.8325C127.425 42.613 127.515 42.3386 127.515 42.0193C127.515 41.6901 127.425 41.4157 127.245 41.1912C127.066 40.9667 126.821 40.857 126.512 40.857C126.203 40.857 125.948 40.9667 125.769 41.1912C125.589 41.4157 125.499 41.6901 125.499 42.0193C125.499 42.3486 125.589 42.613 125.769 42.8325C125.948 43.052 126.198 43.1617 126.512 43.1617Z" fill="white"/>
<path d="M98.4961 64.4434C97.209 64.4434 96.0617 64.1291 95.049 63.5005C94.0363 62.8719 93.2481 62.0139 92.6844 60.9214C92.1206 59.8289 91.8363 58.6266 91.8363 57.3096C91.8363 56.3069 91.9959 55.369 92.3202 54.501C92.6445 53.633 93.0984 52.8697 93.697 52.2212C94.2907 51.5727 94.9991 51.0688 95.8122 50.7146C96.6254 50.3604 97.5183 50.1809 98.4961 50.1809C99.4739 50.1809 100.347 50.3654 101.17 50.7346C101.993 51.1038 102.702 51.6126 103.295 52.2611C103.889 52.9096 104.348 53.6679 104.677 54.5409C105.006 55.4089 105.171 56.3368 105.171 57.3096C105.171 58.2974 105.011 59.2302 104.697 60.0933C104.383 60.9613 103.924 61.7196 103.32 62.3781C102.716 63.0316 102.008 63.5404 101.19 63.8996C100.372 64.2588 99.4739 64.4384 98.5061 64.4384L98.4961 64.4434ZM98.5011 61.7645C99.0947 61.7645 99.6235 61.6497 100.082 61.4153C100.541 61.1808 100.926 60.8565 101.24 60.4375C101.549 60.0184 101.779 59.5445 101.928 59.0107C102.078 58.477 102.153 57.9132 102.153 57.3146C102.153 56.5064 102.013 55.7681 101.734 55.0947C101.454 54.4212 101.04 53.8774 100.487 53.4734C99.9328 53.0643 99.2743 52.8647 98.5011 52.8647C97.7329 52.8647 97.0694 53.0693 96.5156 53.4734C95.9619 53.8824 95.5478 54.4212 95.2685 55.0947C94.9891 55.7681 94.8494 56.5114 94.8494 57.3146C94.8494 58.5817 95.1637 59.6393 95.7923 60.4924C96.4208 61.3454 97.3238 61.7694 98.4961 61.7694L98.5011 61.7645Z" fill="white"/>
<path d="M106.368 62.8166V51.9314C106.368 51.5223 106.502 51.1681 106.777 50.8688C107.051 50.5695 107.42 50.4198 107.879 50.4198H112.833C113.242 50.4198 113.561 50.5545 113.786 50.8189C114.01 51.0833 114.125 51.3976 114.125 51.7568C114.125 52.116 114.01 52.4302 113.781 52.6946C113.551 52.959 113.232 53.0937 112.828 53.0937H109.261V55.9123H112.269C112.718 55.9123 113.062 56.042 113.302 56.3014C113.541 56.5608 113.661 56.8701 113.661 57.2393C113.661 57.6084 113.541 57.9227 113.297 58.1921C113.052 58.4615 112.713 58.5962 112.269 58.5962H109.261V62.8216C109.261 63.3005 109.126 63.6696 108.857 63.934C108.588 64.1934 108.238 64.3281 107.814 64.3281C107.39 64.3281 107.041 64.1934 106.772 63.924C106.497 63.6547 106.363 63.2905 106.363 62.8216L106.368 62.8166Z" fill="white"/>
<path d="M114.963 62.8166V51.9314C114.963 51.5223 115.098 51.1681 115.372 50.8688C115.647 50.5695 116.016 50.4198 116.475 50.4198H121.429C121.838 50.4198 122.157 50.5545 122.381 50.8189C122.606 51.0833 122.721 51.3976 122.721 51.7568C122.721 52.116 122.606 52.4302 122.376 52.6946C122.147 52.959 121.828 53.0937 121.424 53.0937H117.857V55.9123H120.865C121.314 55.9123 121.658 56.042 121.898 56.3014C122.137 56.5608 122.257 56.8701 122.257 57.2393C122.257 57.6084 122.137 57.9227 121.893 58.1921C121.648 58.4615 121.309 58.5962 120.865 58.5962H117.857V62.8216C117.857 63.3005 117.722 63.6696 117.453 63.934C117.183 64.1934 116.834 64.3281 116.41 64.3281C115.986 64.3281 115.637 64.1934 115.367 63.924C115.093 63.6547 114.958 63.2905 114.958 62.8216L114.963 62.8166Z" fill="white"/>
<path d="M125.19 168.221V185.238H127.19C127.954 185.238 128.527 185.467 128.912 185.926C129.296 186.385 129.49 186.934 129.49 187.577C129.49 188.221 129.286 188.745 128.872 189.213C128.458 189.682 127.899 189.922 127.19 189.922H122.376C121.673 189.922 121.114 189.697 120.715 189.253C120.311 188.804 120.112 188.231 120.112 187.522V168.226C120.112 167.388 120.346 166.74 120.815 166.281C121.284 165.822 121.893 165.592 122.646 165.592C123.384 165.592 123.993 165.827 124.477 166.296C124.956 166.765 125.195 167.408 125.195 168.221H125.19Z" fill="white"/>
<path d="M108.049 165.377C110.189 165.377 111.93 165.996 113.272 167.238C114.619 168.48 115.577 170.046 116.155 171.947C116.734 173.843 117.023 175.813 117.023 177.854C117.023 179.894 116.734 181.864 116.155 183.76C115.577 185.656 114.614 187.227 113.272 188.469C111.925 189.711 110.184 190.33 108.049 190.33C106.408 190.33 105.006 189.961 103.848 189.223C102.691 188.484 101.763 187.507 101.07 186.294C100.376 185.082 99.8725 183.745 99.5582 182.283C99.244 180.822 99.0843 179.345 99.0843 177.859C99.0843 176.392 99.244 174.93 99.5582 173.473C99.8725 172.017 100.376 170.675 101.07 169.453C101.763 168.23 102.691 167.243 103.848 166.499C105.006 165.756 106.408 165.382 108.049 165.382V165.377ZM108.059 169.996C107.011 169.996 106.213 170.445 105.669 171.338C105.126 172.231 104.771 173.264 104.612 174.431C104.452 175.599 104.372 176.741 104.372 177.859C104.372 179.924 104.612 181.75 105.091 183.336C105.57 184.922 106.562 185.721 108.059 185.721C109.56 185.721 110.548 184.917 111.027 183.306C111.506 181.695 111.745 179.879 111.745 177.863C111.745 175.913 111.501 174.112 111.017 172.466C110.533 170.82 109.545 170.001 108.054 170.001L108.059 169.996Z" fill="white"/>
<path d="M94.7442 173.553C95.5973 173.553 96.3057 173.862 96.8744 174.481C97.4431 175.1 97.7324 175.828 97.7324 176.676C97.7324 177.23 97.6027 177.749 97.3433 178.232C97.0839 178.716 96.7297 179.1 96.2708 179.385C95.8118 179.669 95.303 179.814 94.7442 179.814C94.1855 179.814 93.6916 179.674 93.2377 179.39C92.7787 179.105 92.4195 178.721 92.1601 178.237C91.9007 177.754 91.766 177.23 91.766 176.676C91.766 176.127 91.8957 175.613 92.1551 175.13C92.4145 174.646 92.7737 174.267 93.2327 173.982C93.6916 173.698 94.1955 173.558 94.7442 173.558V173.553ZM94.7442 175.534C94.4349 175.534 94.1905 175.643 94.0109 175.863C93.8313 176.082 93.7415 176.357 93.7415 176.676C93.7415 176.995 93.8313 177.28 94.0109 177.504C94.1905 177.729 94.4349 177.838 94.7442 177.838C95.0535 177.838 95.3079 177.729 95.4875 177.504C95.6671 177.28 95.7569 177.005 95.7569 176.676C95.7569 176.347 95.6671 176.082 95.4875 175.863C95.3079 175.643 95.0585 175.534 94.7442 175.534ZM95.4426 167.228L89.0323 179.315C88.8976 179.559 88.7778 179.724 88.6581 179.809C88.5434 179.889 88.3688 179.934 88.1443 179.934C87.9547 179.934 87.7701 179.889 87.5955 179.794C87.4209 179.699 87.2763 179.569 87.1665 179.4C87.0568 179.23 87.0019 179.051 87.0019 178.846C87.0019 178.657 87.0518 178.467 87.1515 178.267L93.6567 166.085C93.8413 165.826 93.976 165.656 94.0658 165.571C94.1556 165.487 94.3152 165.442 94.5347 165.442C94.7891 165.442 95.0336 165.551 95.273 165.766C95.5125 165.985 95.6322 166.23 95.6322 166.509C95.6322 166.719 95.5674 166.958 95.4426 167.228ZM87.9248 165.556C88.7778 165.556 89.4862 165.866 90.0549 166.484C90.6236 167.103 90.913 167.831 90.913 168.679C90.913 169.233 90.7833 169.752 90.5239 170.236C90.2644 170.72 89.9103 171.104 89.4513 171.388C88.9923 171.672 88.4835 171.817 87.9248 171.817C87.3661 171.817 86.8722 171.677 86.4182 171.393C85.9593 171.109 85.6001 170.725 85.3407 170.241C85.0813 169.757 84.9466 169.233 84.9466 168.679C84.9466 168.126 85.0763 167.617 85.3357 167.133C85.5951 166.649 85.9543 166.27 86.4132 165.985C86.8722 165.701 87.376 165.561 87.9248 165.561V165.556ZM87.9248 167.532C87.6155 167.532 87.371 167.642 87.1914 167.861C87.0119 168.081 86.9221 168.355 86.9221 168.674C86.9221 169.004 87.0119 169.278 87.1914 169.502C87.371 169.727 87.6155 169.837 87.9248 169.837C88.2341 169.837 88.4885 169.727 88.6681 169.502C88.8477 169.278 88.9375 169.004 88.9375 168.674C88.9375 168.345 88.8477 168.081 88.6681 167.861C88.4885 167.642 88.2391 167.532 87.9248 167.532Z" fill="white"/>
<path d="M115.941 146.251C117.228 146.251 118.375 146.565 119.388 147.194C120.401 147.823 121.189 148.681 121.753 149.773C122.316 150.866 122.601 152.068 122.601 153.385C122.601 154.388 122.441 155.325 122.117 156.194C121.792 157.062 121.338 157.825 120.74 158.473C120.146 159.122 119.438 159.626 118.625 159.98C117.812 160.334 116.919 160.514 115.941 160.514C114.963 160.514 114.09 160.329 113.267 159.96C112.444 159.591 111.735 159.082 111.142 158.433C110.548 157.785 110.089 157.027 109.76 156.154C109.431 155.286 109.266 154.358 109.266 153.385C109.266 152.397 109.426 151.464 109.74 150.601C110.054 149.733 110.513 148.975 111.117 148.316C111.72 147.663 112.429 147.154 113.247 146.795C114.065 146.436 114.963 146.256 115.931 146.256L115.941 146.251ZM115.936 148.93C115.342 148.93 114.813 149.045 114.354 149.279C113.895 149.514 113.511 149.838 113.197 150.257C112.888 150.676 112.658 151.15 112.509 151.684C112.359 152.218 112.284 152.781 112.284 153.38C112.284 154.188 112.424 154.926 112.703 155.6C112.983 156.273 113.397 156.817 113.95 157.221C114.504 157.63 115.163 157.83 115.936 157.83C116.704 157.83 117.368 157.625 117.921 157.221C118.475 156.812 118.889 156.273 119.168 155.6C119.448 154.926 119.587 154.183 119.587 153.38C119.587 152.113 119.273 151.055 118.645 150.202C118.016 149.349 117.113 148.925 115.941 148.925L115.936 148.93Z" fill="white"/>
<path d="M108.069 147.877V158.762C108.069 159.171 107.935 159.525 107.66 159.824C107.386 160.124 107.017 160.273 106.558 160.273H101.604C101.195 160.273 100.876 160.139 100.651 159.874C100.427 159.61 100.312 159.296 100.312 158.936C100.312 158.577 100.427 158.263 100.656 157.999C100.886 157.734 101.205 157.6 101.609 157.6H105.176V154.781H102.168C101.719 154.781 101.374 154.651 101.135 154.392C100.896 154.132 100.776 153.823 100.776 153.454C100.776 153.085 100.896 152.771 101.14 152.501C101.384 152.232 101.724 152.097 102.168 152.097H105.176V147.872C105.176 147.393 105.311 147.024 105.58 146.759C105.849 146.5 106.198 146.365 106.623 146.365C107.047 146.365 107.396 146.5 107.665 146.769C107.94 147.039 108.074 147.403 108.074 147.872L108.069 147.877Z" fill="white"/>
<path d="M99.4735 147.877V158.762C99.4735 159.171 99.3388 159.525 99.0645 159.824C98.7901 160.124 98.4209 160.273 97.962 160.273H93.0083C92.5992 160.273 92.2799 160.139 92.0554 159.874C91.831 159.61 91.7162 159.296 91.7162 158.936C91.7162 158.577 91.8309 158.263 92.0604 157.999C92.2899 157.734 92.6092 157.6 93.0133 157.6H96.5801V154.781H93.572C93.123 154.781 92.7788 154.651 92.5393 154.392C92.2999 154.132 92.1802 153.823 92.1802 153.454C92.1802 153.085 92.2999 152.771 92.5443 152.501C92.7888 152.232 93.128 152.097 93.572 152.097H96.5801V147.872C96.5801 147.393 96.7148 147.024 96.9842 146.759C97.2536 146.5 97.6028 146.365 98.0268 146.365C98.4509 146.365 98.8001 146.5 99.0695 146.769C99.3438 147.039 99.4785 147.403 99.4785 147.872L99.4735 147.877Z" fill="white"/>
<path d="M190.521 98.9583L186.909 98.4394C187.144 99.4821 187.259 100.335 187.259 101.004C187.259 102.336 186.934 103.543 186.286 104.625C185.637 105.708 184.754 106.551 183.647 107.155C182.534 107.758 181.322 108.062 180 108.062C178.578 108.062 177.291 107.868 176.139 107.489C174.987 107.105 173.989 106.526 173.151 105.758C172.313 104.985 171.669 104.037 171.22 102.909C170.771 101.782 170.547 100.485 170.547 99.0231C170.547 98.1002 170.731 97.0526 171.095 95.8753C171.46 94.698 171.998 93.6803 172.702 92.8222C173.405 91.9642 174.213 91.5302 175.126 91.5302C175.535 91.5302 175.924 91.6349 176.284 91.8395C176.643 92.044 176.927 92.3284 177.132 92.6875C177.336 93.0467 177.441 93.4358 177.441 93.8449C177.441 94.224 177.202 94.8027 176.718 95.5809C176.234 96.3592 175.87 96.9778 175.625 97.4317C175.381 97.8857 175.261 98.4544 175.256 99.1329C175.256 100.255 175.705 101.138 176.603 101.782C177.501 102.425 178.539 102.75 179.716 102.75C180.369 102.75 180.963 102.625 181.497 102.375C182.031 102.126 182.44 101.757 182.729 101.268C183.018 100.779 183.163 100.185 183.163 99.4821C183.163 98.7936 182.978 98.0803 182.604 97.3469C182.23 96.6136 182.046 95.98 182.046 95.4463C182.046 94.8476 182.225 94.3587 182.589 93.9896C182.948 93.6154 183.303 93.4308 183.647 93.4308C183.802 93.4308 183.971 93.4408 184.156 93.4658C184.34 93.4857 184.55 93.5107 184.794 93.5306L192.003 94.3986C192.711 94.5084 193.27 94.6331 193.674 94.7678C194.078 94.9025 194.392 95.0671 194.617 95.2667C194.836 95.4662 194.996 95.7057 195.091 95.985C195.186 96.2644 195.23 96.6186 195.23 97.0526V105.279C195.23 106.032 195.026 106.636 194.617 107.085C194.208 107.534 193.694 107.758 193.07 107.758C192.033 107.758 191.349 107.499 191.015 106.985C190.681 106.471 190.516 105.932 190.516 105.379V98.9682L190.521 98.9583Z" fill="white"/>
<path d="M178.768 113.615C178.768 112.757 179.078 112.044 179.701 111.47C180.325 110.896 181.058 110.607 181.906 110.612C182.465 110.612 182.984 110.742 183.473 111.001C183.956 111.26 184.346 111.62 184.635 112.084C184.924 112.543 185.069 113.056 185.069 113.62C185.069 114.184 184.924 114.678 184.64 115.137C184.356 115.596 183.966 115.96 183.478 116.219C182.989 116.484 182.465 116.613 181.906 116.613C181.352 116.613 180.834 116.484 180.35 116.224C179.866 115.965 179.482 115.601 179.192 115.142C178.908 114.678 178.763 114.169 178.763 113.62L178.768 113.615ZM180.754 113.615C180.754 113.924 180.864 114.174 181.088 114.353C181.308 114.533 181.582 114.623 181.906 114.623C182.23 114.623 182.515 114.533 182.739 114.353C182.964 114.174 183.078 113.924 183.078 113.615C183.078 113.306 182.964 113.051 182.739 112.867C182.515 112.687 182.235 112.597 181.906 112.597C181.577 112.597 181.308 112.687 181.088 112.867C180.864 113.046 180.754 113.296 180.754 113.615ZM172.403 112.912L184.56 119.367C184.81 119.502 184.974 119.626 185.054 119.741C185.139 119.856 185.179 120.031 185.179 120.26C185.179 120.45 185.129 120.634 185.034 120.814C184.939 120.993 184.81 121.133 184.64 121.248C184.47 121.357 184.286 121.412 184.081 121.412C183.892 121.412 183.697 121.362 183.503 121.258L171.25 114.708C170.991 114.523 170.816 114.383 170.732 114.294C170.647 114.204 170.602 114.044 170.602 113.825C170.602 113.57 170.712 113.326 170.931 113.081C171.151 112.842 171.4 112.722 171.679 112.722C171.889 112.722 172.128 112.787 172.403 112.912ZM170.717 120.474C170.717 119.616 171.026 118.903 171.65 118.329C172.273 117.756 173.006 117.466 173.855 117.471C174.413 117.471 174.932 117.601 175.421 117.86C175.905 118.12 176.294 118.479 176.583 118.943C176.873 119.402 177.017 119.916 177.017 120.479C177.017 121.043 176.873 121.537 176.588 121.996C176.304 122.455 175.915 122.819 175.426 123.079C174.937 123.343 174.413 123.473 173.855 123.473C173.296 123.473 172.782 123.343 172.298 123.084C171.814 122.824 171.43 122.46 171.141 122.001C170.856 121.537 170.712 121.028 170.712 120.479L170.717 120.474ZM172.707 120.474C172.707 120.784 172.817 121.033 173.041 121.213C173.261 121.392 173.535 121.482 173.86 121.482C174.184 121.482 174.468 121.392 174.693 121.213C174.917 121.033 175.032 120.784 175.032 120.474C175.032 120.165 174.917 119.911 174.693 119.726C174.468 119.547 174.189 119.457 173.86 119.457C173.53 119.457 173.261 119.547 173.041 119.726C172.817 119.906 172.707 120.155 172.707 120.474Z" fill="white"/>
<path d="M151.301 98.5941C151.301 97.3021 151.615 96.1447 152.249 95.127C152.882 94.1093 153.745 93.3161 154.843 92.7474C155.94 92.1787 157.153 91.8944 158.48 91.8944C159.487 91.8944 160.43 92.059 161.303 92.3783C162.176 92.7025 162.944 93.1615 163.598 93.7651C164.252 94.3637 164.755 95.0721 165.115 95.8903C165.474 96.7084 165.653 97.6064 165.653 98.5941C165.653 99.5819 165.469 100.455 165.095 101.283C164.72 102.111 164.212 102.824 163.558 103.418C162.905 104.012 162.141 104.476 161.263 104.805C160.39 105.134 159.457 105.299 158.475 105.299C157.477 105.299 156.544 105.139 155.671 104.825C154.798 104.506 154.035 104.047 153.376 103.438C152.718 102.834 152.204 102.116 151.845 101.293C151.486 100.47 151.301 99.5669 151.301 98.5891V98.5941ZM153.995 98.5991C153.995 99.1977 154.11 99.7265 154.344 100.19C154.579 100.654 154.908 101.039 155.327 101.353C155.746 101.662 156.225 101.897 156.764 102.046C157.297 102.196 157.871 102.271 158.47 102.271C159.283 102.271 160.026 102.131 160.705 101.852C161.383 101.572 161.927 101.153 162.336 100.6C162.745 100.046 162.949 99.3773 162.949 98.6041C162.949 97.8308 162.745 97.1624 162.336 96.6086C161.927 96.0549 161.383 95.6358 160.705 95.3565C160.026 95.0771 159.283 94.9374 158.47 94.9374C157.193 94.9374 156.13 95.2517 155.272 95.8853C154.414 96.5188 153.985 97.4218 153.985 98.6041L153.995 98.5991Z" fill="white"/>
<path d="M152.937 106.511H163.887C164.301 106.511 164.655 106.651 164.959 106.93C165.258 107.204 165.413 107.574 165.413 108.037V113.021C165.413 113.435 165.278 113.754 165.009 113.984C164.74 114.213 164.425 114.328 164.066 114.328C163.707 114.328 163.388 114.213 163.123 113.979C162.854 113.749 162.724 113.43 162.724 113.021V109.434H159.891V112.457C159.891 112.906 159.761 113.251 159.502 113.495C159.242 113.734 158.928 113.854 158.559 113.854C158.19 113.854 157.87 113.729 157.601 113.49C157.332 113.246 157.197 112.901 157.197 112.457V109.434H152.946C152.463 109.434 152.093 109.3 151.829 109.03C151.565 108.761 151.435 108.412 151.435 107.978C151.435 107.554 151.57 107.204 151.839 106.925C152.108 106.651 152.478 106.511 152.946 106.511H152.937Z" fill="white"/>
<path d="M152.937 115.161H163.887C164.301 115.161 164.655 115.301 164.959 115.58C165.258 115.855 165.413 116.224 165.413 116.688V121.671C165.413 122.086 165.278 122.405 165.009 122.634C164.74 122.864 164.425 122.979 164.066 122.979C163.707 122.979 163.388 122.864 163.123 122.629C162.854 122.4 162.724 122.081 162.724 121.671V118.085H159.891V121.108C159.891 121.557 159.761 121.901 159.502 122.145C159.242 122.385 158.928 122.505 158.559 122.505C158.19 122.505 157.87 122.38 157.601 122.14C157.332 121.896 157.197 121.552 157.197 121.108V118.085H152.946C152.463 118.085 152.093 117.95 151.829 117.681C151.565 117.411 151.435 117.062 151.435 116.628C151.435 116.194 151.57 115.855 151.839 115.575C152.108 115.301 152.478 115.161 152.946 115.161H152.937Z" fill="white"/>
<path d="M35.7982 140.509L28.1656 142.28C28.016 142.32 27.8563 142.34 27.6967 142.34C27.4572 142.34 27.2427 142.245 27.0532 142.06C26.8686 141.876 26.7738 141.636 26.7738 141.342C26.7738 140.738 27.108 140.364 27.7765 140.225L33.708 139.037V139.012L27.5919 137.197C27.3375 137.117 27.138 136.977 26.9933 136.783C26.8486 136.588 26.7738 136.363 26.7738 136.109C26.7738 135.855 26.8486 135.63 26.9933 135.431C27.138 135.231 27.3375 135.096 27.5919 135.017L33.708 133.201V133.176L27.7765 131.988C27.4473 131.924 27.1978 131.804 27.0282 131.629C26.8586 131.455 26.7738 131.2 26.7738 130.871C26.7738 130.577 26.8686 130.337 27.0532 130.153C27.2377 129.973 27.4523 129.878 27.6967 129.878C27.8513 129.878 28.006 129.898 28.1656 129.933L35.7982 131.704C36.1125 131.779 36.3719 131.934 36.5764 132.173C36.781 132.412 36.8857 132.717 36.8857 133.091C36.8857 133.425 36.791 133.714 36.6014 133.964C36.4118 134.213 36.1674 134.383 35.8731 134.478L30.4803 136.094V136.119L35.8731 137.74C36.1674 137.825 36.4118 137.995 36.6014 138.244C36.791 138.494 36.8857 138.788 36.8857 139.122C36.8857 139.491 36.781 139.796 36.5764 140.035C36.3719 140.275 36.1125 140.429 35.7982 140.504V140.509Z" fill="#F2F2F2"/>
<path d="M35.444 129.644L27.8463 126.836C27.4971 126.706 27.2178 126.507 27.0033 126.247C26.7888 125.988 26.684 125.683 26.684 125.344C26.684 124.985 26.7888 124.676 26.9983 124.421C27.2078 124.167 27.4872 123.972 27.8463 123.853L35.444 121.109C35.6436 121.034 35.8182 120.999 35.9628 120.999C36.1424 120.999 36.2971 121.044 36.4418 121.134C36.5814 121.224 36.6912 121.338 36.771 121.483C36.8508 121.628 36.8857 121.787 36.8857 121.962C36.8857 122.481 36.6463 122.82 36.1674 122.985L34.8554 123.399V127.28L36.1524 127.704C36.6413 127.858 36.8857 128.193 36.8857 128.707C36.8857 128.991 36.791 129.235 36.6014 129.44C36.4118 129.644 36.1823 129.744 35.908 129.744C35.7783 129.744 35.6236 129.714 35.444 129.649V129.644ZM28.869 125.354L32.9198 126.676V124.022L28.869 125.324V125.349V125.354Z" fill="#F2F2F2"/>
<path d="M35.6583 120.341H27.8611C27.5268 120.341 27.2574 120.241 27.0679 120.046C26.8733 119.847 26.7785 119.597 26.7785 119.293C26.7785 118.989 26.8733 118.734 27.0629 118.54C27.2524 118.345 27.5168 118.25 27.866 118.25H34.8751V115.761C34.8751 115.427 34.9748 115.172 35.1794 115.008C35.3839 114.843 35.6184 114.758 35.8878 114.758C36.1322 114.773 36.3467 114.868 36.5313 115.053C36.7159 115.237 36.8057 115.472 36.8057 115.761V119.253C36.8057 119.587 36.7009 119.857 36.4964 120.051C36.2918 120.246 36.0125 120.346 35.6633 120.346L35.6583 120.341Z" fill="#F2F2F2"/>
<path d="M35.6583 114.393H27.8611C27.5268 114.393 27.2574 114.294 27.0679 114.099C26.8733 113.9 26.7785 113.65 26.7785 113.346C26.7785 113.042 26.8733 112.787 27.0629 112.593C27.2524 112.398 27.5168 112.303 27.866 112.303H34.8751V109.814C34.8751 109.48 34.9748 109.225 35.1794 109.061C35.3839 108.896 35.6184 108.811 35.8878 108.811C36.1322 108.826 36.3467 108.921 36.5313 109.106C36.7159 109.29 36.8057 109.525 36.8057 109.814V113.306C36.8057 113.64 36.7009 113.91 36.4964 114.104C36.2918 114.299 36.0125 114.398 35.6633 114.398L35.6583 114.393Z" fill="#F2F2F2"/>
<path d="M35.7984 108.441H27.9463C27.6121 108.441 27.3427 108.347 27.1481 108.157C26.9536 107.967 26.8538 107.698 26.8538 107.354V104.89C26.8538 104.221 26.9935 103.612 27.2729 103.059C27.5522 102.505 27.9463 102.076 28.4502 101.772C28.959 101.467 29.5327 101.313 30.1862 101.313C30.6901 101.313 31.149 101.402 31.5581 101.587C31.9672 101.772 32.3164 102.021 32.6057 102.335C32.8951 102.65 33.1146 103.024 33.2642 103.448C33.4139 103.872 33.4937 104.326 33.4937 104.795V106.346H35.7885C36.1327 106.346 36.4021 106.441 36.5916 106.636C36.7812 106.83 36.876 107.08 36.876 107.389C36.876 107.698 36.7812 107.943 36.5866 108.142C36.3921 108.342 36.1277 108.436 35.7934 108.436L35.7984 108.441ZM28.6996 106.351H31.6579V104.924C31.6579 104.495 31.5182 104.151 31.2438 103.887C30.9644 103.622 30.6103 103.488 30.1812 103.488C29.9019 103.488 29.6524 103.548 29.428 103.667C29.2035 103.787 29.0239 103.952 28.8942 104.171C28.7645 104.391 28.6996 104.64 28.6996 104.929V106.356V106.351Z" fill="#F2F2F2"/>
<path d="M35.444 101.18L27.8463 98.3709C27.4971 98.2412 27.2178 98.0417 27.0033 97.7823C26.7888 97.5229 26.684 97.2186 26.684 96.8793C26.684 96.5201 26.7888 96.2108 26.9983 95.9564C27.2078 95.702 27.4872 95.5075 27.8463 95.3877L35.444 92.644C35.6436 92.5691 35.8182 92.5342 35.9628 92.5342C36.1424 92.5342 36.2971 92.5791 36.4418 92.6689C36.5814 92.7587 36.6912 92.8735 36.771 93.0181C36.8508 93.1628 36.8857 93.3224 36.8857 93.497C36.8857 94.0159 36.6463 94.3551 36.1674 94.5197L34.8554 94.9338V98.8149L36.1524 99.2389C36.6413 99.3936 36.8857 99.7278 36.8857 100.242C36.8857 100.526 36.791 100.77 36.6014 100.975C36.4118 101.18 36.1823 101.279 35.908 101.279C35.7783 101.279 35.6236 101.249 35.444 101.185V101.18ZM28.869 96.8893L32.9198 98.2113V95.5573L28.869 96.8594V96.8843V96.8893Z" fill="#F2F2F2"/>
<path d="M35.7984 91.875H27.9463C27.6121 91.875 27.3427 91.7802 27.1481 91.5906C26.9536 91.4011 26.8538 91.1317 26.8538 90.7875V88.3231C26.8538 87.6546 26.9935 87.046 27.2729 86.4923C27.5522 85.9385 27.9463 85.5095 28.4502 85.2052C28.959 84.9009 29.5327 84.7462 30.1862 84.7462C30.6901 84.7462 31.149 84.836 31.5581 85.0206C31.9672 85.2052 32.3164 85.4546 32.6057 85.7689C32.8951 86.0832 33.1146 86.4573 33.2642 86.8814C33.4139 87.3054 33.4937 87.7594 33.4937 88.2283V89.7798H35.7885C36.1327 89.7798 36.4021 89.8746 36.5916 90.0691C36.7812 90.2637 36.876 90.5131 36.876 90.8224C36.876 91.1317 36.7812 91.3761 36.5866 91.5757C36.3921 91.7752 36.1277 91.87 35.7934 91.87L35.7984 91.875ZM28.6996 89.7848H31.6579V88.358C31.6579 87.929 31.5182 87.5848 31.2438 87.3204C30.9644 87.056 30.6103 86.9213 30.1812 86.9213C29.9019 86.9213 29.6524 86.9811 29.428 87.1009C29.2035 87.2206 29.0239 87.3852 28.8942 87.6047C28.7645 87.8242 28.6996 88.0737 28.6996 88.363V89.7897V89.7848Z" fill="#F2F2F2"/>
<path d="M35.7531 84.1074H28.0756C27.7114 84.1074 27.4171 84.0126 27.1976 83.8281C26.9731 83.6435 26.8633 83.3691 26.8633 83.0149V79.5478C26.8633 79.2285 26.9581 78.9841 27.1477 78.8145C27.3373 78.6449 27.5617 78.5601 27.8311 78.5601C28.0057 78.5601 28.1654 78.6 28.305 78.6748C28.4447 78.7496 28.5645 78.8644 28.6592 79.014C28.749 79.1637 28.7939 79.3383 28.7939 79.5478V82.0122H30.8243V79.7224C30.8243 79.3932 30.9191 79.1437 31.1037 78.9641C31.2882 78.7846 31.5177 78.6997 31.7921 78.6997C32.0465 78.6997 32.271 78.7895 32.4656 78.9741C32.6601 79.1537 32.7549 79.4081 32.7549 79.7224V82.0122H34.8751V79.4281C34.8751 79.1038 34.9699 78.8594 35.1594 78.6898C35.349 78.5202 35.5785 78.4354 35.8429 78.4354C35.9925 78.4354 36.1472 78.4753 36.3018 78.5501C36.4565 78.6299 36.5812 78.7397 36.671 78.8893C36.7608 79.039 36.8057 79.2186 36.8057 79.4281V83.0299C36.8057 83.3392 36.7109 83.5936 36.5163 83.7981C36.3218 84.0027 36.0674 84.1074 35.7581 84.1074H35.7531Z" fill="#F2F2F2"/>
<path d="M35.7982 77.6426H27.9461C27.6069 77.6426 27.3375 77.5528 27.1429 77.3682C26.9484 77.1836 26.8536 76.9192 26.8536 76.565V74.1106C26.8536 72.9982 27.113 72.1401 27.6268 71.5365C28.1407 70.9329 28.9389 70.6335 30.0114 70.6335C30.3905 70.6335 30.7298 70.6984 31.0341 70.8331C31.3384 70.9628 31.6028 71.1524 31.8223 71.3868C32.0418 71.6263 32.2214 71.9007 32.3561 72.205C32.4908 72.5143 32.5905 72.8485 32.6504 73.2177L35.1896 70.8381C35.3892 70.6585 35.5987 70.5637 35.8082 70.5637C36.0925 70.5637 36.337 70.6635 36.5565 70.868C36.771 71.0725 36.8808 71.317 36.8808 71.6063C36.8808 71.9406 36.761 72.2149 36.5216 72.4195L32.7651 75.5224V75.5473H35.7982C36.1424 75.5473 36.4118 75.6421 36.6014 75.8367C36.791 76.0313 36.8857 76.2807 36.8857 76.59C36.8857 76.8993 36.791 77.1437 36.5964 77.3433C36.4019 77.5428 36.1375 77.6376 35.8032 77.6376L35.7982 77.6426ZM28.7892 75.5473H31.2586V74.1106C31.2586 73.7265 31.1488 73.4122 30.9243 73.1678C30.6998 72.9233 30.4005 72.8086 30.0214 72.8086C29.6423 72.8086 29.323 72.9283 29.1085 73.1678C28.894 73.4072 28.7892 73.7215 28.7892 74.1106V75.5473Z" fill="#F2F2F2"/>
<path d="M52.5148 139.984H44.8373C44.4731 139.984 44.1788 139.89 43.9593 139.705C43.7348 139.52 43.625 139.246 43.625 138.892V135.425C43.625 135.105 43.7198 134.861 43.9094 134.691C44.099 134.522 44.3235 134.437 44.5928 134.437C44.7674 134.437 44.9271 134.477 45.0668 134.552C45.2064 134.627 45.3262 134.741 45.421 134.891C45.5108 135.041 45.5556 135.215 45.5556 135.425V137.889H47.586V135.599C47.586 135.27 47.6808 135.021 47.8654 134.841C48.05 134.662 48.2794 134.577 48.5538 134.577C48.8082 134.577 49.0327 134.666 49.2273 134.851C49.4218 135.031 49.5166 135.285 49.5166 135.599V137.889H51.6368V135.305C51.6368 134.981 51.7316 134.736 51.9211 134.567C52.1107 134.397 52.3402 134.312 52.6046 134.312C52.7542 134.312 52.9089 134.352 53.0635 134.427C53.2182 134.507 53.3429 134.617 53.4327 134.766C53.5225 134.916 53.5674 135.096 53.5674 135.305V138.907C53.5674 139.216 53.4726 139.471 53.278 139.675C53.0835 139.88 52.8291 139.984 52.5198 139.984H52.5148Z" fill="#F2F2F2"/>
<path d="M51.9563 133.854L48.2448 131.086L45.1668 133.35C44.9822 133.5 44.7777 133.575 44.5532 133.575C44.2539 133.575 44.0094 133.475 43.8199 133.271C43.6303 133.066 43.5355 132.817 43.5355 132.512C43.5355 132.333 43.5854 132.163 43.6902 131.994C43.7949 131.824 43.9097 131.694 44.0493 131.604L46.5137 129.873L44.0493 128.142C43.9146 128.053 43.7949 127.923 43.6902 127.753C43.5854 127.584 43.5355 127.414 43.5355 127.234C43.5355 127.05 43.5804 126.87 43.6652 126.701C43.75 126.531 43.8697 126.401 44.0244 126.311C44.179 126.222 44.3536 126.177 44.5532 126.177C44.7727 126.177 44.9772 126.252 45.1668 126.396L48.2448 128.661L51.9563 125.897C52.1708 125.738 52.4103 125.658 52.6747 125.658C52.969 125.658 53.2085 125.758 53.3831 125.952C53.5577 126.147 53.6475 126.401 53.6475 126.716C53.6475 127.08 53.4928 127.369 53.1885 127.584L50.0058 129.873L53.1885 132.163C53.4928 132.383 53.6475 132.672 53.6475 133.031C53.6475 133.34 53.5577 133.595 53.3731 133.794C53.1935 133.994 52.959 134.094 52.6697 134.094C52.4203 134.094 52.1808 134.014 51.9513 133.854H51.9563Z" fill="#F2F2F2"/>
<path d="M48.5941 125.363C47.8708 125.363 47.1973 125.249 46.5687 125.014C45.9402 124.78 45.3914 124.45 44.9275 124.021C44.4585 123.592 44.0944 123.083 43.84 122.495C43.5855 121.906 43.4558 121.263 43.4558 120.559C43.4558 120.275 43.4808 119.951 43.5357 119.596C43.5905 119.242 43.6753 118.913 43.7901 118.609C43.9048 118.304 44.0645 118.055 44.269 117.85C44.4735 117.646 44.723 117.546 45.0173 117.546C45.2717 117.546 45.4912 117.631 45.6758 117.796C45.8604 117.96 45.9502 118.17 45.9502 118.414C45.9502 118.564 45.9003 118.773 45.7955 119.043C45.6907 119.312 45.6109 119.547 45.5511 119.746C45.4912 119.946 45.4613 120.215 45.4613 120.554C45.4613 120.983 45.5461 121.357 45.7107 121.687C45.8753 122.016 46.1048 122.285 46.3892 122.505C46.6735 122.724 47.0127 122.889 47.3969 123.004C47.781 123.118 48.195 123.178 48.629 123.178C49.507 123.178 50.2404 122.949 50.834 122.485C51.4277 122.021 51.722 121.377 51.722 120.554C51.722 120.21 51.6871 119.936 51.6172 119.731C51.5474 119.527 51.4526 119.282 51.3229 118.993C51.1982 118.703 51.1333 118.484 51.1333 118.329C51.1333 118.045 51.2431 117.815 51.4576 117.656C51.6721 117.491 51.8816 117.411 52.0812 117.411C52.4903 117.411 52.8195 117.586 53.0639 117.935C53.3084 118.284 53.483 118.703 53.5828 119.187C53.6825 119.671 53.7324 120.125 53.7324 120.554C53.7324 121.482 53.5079 122.31 53.054 123.039C52.6 123.767 51.9814 124.336 51.1932 124.745C50.405 125.154 49.537 125.353 48.5891 125.353L48.5941 125.363Z" fill="#F2F2F2"/>
<path d="M52.42 116.438H44.6228C44.2885 116.438 44.0191 116.339 43.8296 116.144C43.635 115.944 43.5402 115.695 43.5402 115.391C43.5402 115.086 43.635 114.832 43.8246 114.637C44.0142 114.443 44.2786 114.348 44.6278 114.348H51.6368V111.859C51.6368 111.525 51.7366 111.27 51.9411 111.106C52.1456 110.941 52.3801 110.856 52.6495 110.856C52.8939 110.871 53.1084 110.966 53.293 111.15C53.4776 111.335 53.5674 111.569 53.5674 111.859V115.351C53.5674 115.685 53.4626 115.954 53.2581 116.149C53.0536 116.344 52.7742 116.443 52.425 116.443L52.42 116.438Z" fill="#F2F2F2"/>
<path d="M49.6066 110.578H44.623C44.2837 110.578 44.0144 110.478 43.8248 110.284C43.6352 110.089 43.5404 109.84 43.5404 109.535C43.5404 109.231 43.6352 108.967 43.8248 108.777C44.0144 108.582 44.2788 108.488 44.628 108.488H49.5068C49.9409 108.488 50.33 108.403 50.6742 108.228C51.0184 108.054 51.2978 107.804 51.5023 107.475C51.7068 107.146 51.8116 106.767 51.8116 106.338C51.8116 105.714 51.5821 105.2 51.1282 104.801C50.6742 104.397 50.1304 104.197 49.5068 104.197H44.628C44.2887 104.197 44.0193 104.098 43.8298 103.903C43.6402 103.709 43.5454 103.459 43.5454 103.155C43.5454 102.851 43.6402 102.586 43.8298 102.397C44.0193 102.202 44.2837 102.107 44.6329 102.107H49.6166C50.1903 102.107 50.7291 102.217 51.2279 102.436C51.7318 102.656 52.1708 102.96 52.5499 103.349C52.929 103.739 53.2184 104.192 53.4279 104.706C53.6374 105.22 53.7422 105.764 53.7422 106.343C53.7422 107.111 53.5626 107.819 53.2084 108.473C52.8492 109.121 52.3603 109.64 51.7268 110.019C51.0982 110.398 50.3948 110.588 49.6166 110.588L49.6066 110.578Z" fill="#F2F2F2"/>
<path d="M43.4506 97.7821C43.4506 97.4628 43.4955 97.0886 43.5853 96.6546C43.6751 96.2206 43.8298 95.8465 44.0393 95.5272C44.2488 95.2079 44.5182 95.0483 44.8475 95.0483C45.1318 95.0483 45.3763 95.1331 45.5808 95.3077C45.7853 95.4823 45.8851 95.7068 45.8851 95.9812C45.8851 96.1059 45.8601 96.2456 45.8152 96.3952C45.7703 96.5449 45.7155 96.6945 45.6556 96.8542C45.5958 97.0088 45.5509 97.1685 45.5159 97.3231C45.481 97.4778 45.4661 97.6524 45.4661 97.8369C45.4661 98.1512 45.5459 98.4206 45.7105 98.6451C45.8751 98.8696 46.0946 98.9843 46.374 98.9843C46.6733 98.9843 46.9128 98.7299 47.0923 98.226C47.2719 97.7172 47.4665 97.1535 47.671 96.5349C47.8756 95.9163 48.1948 95.3925 48.6238 94.9635C49.0529 94.5345 49.6764 94.3199 50.4946 94.3199C51.1331 94.3199 51.6969 94.4796 52.1907 94.8038C52.6846 95.1281 53.0687 95.5621 53.3381 96.1059C53.6075 96.6496 53.7422 97.2483 53.7422 97.8918C53.7422 98.685 53.6274 99.4533 53.393 100.187C53.1585 100.92 52.7544 101.289 52.1758 101.289C51.8964 101.289 51.6569 101.204 51.4674 101.035C51.2778 100.865 51.183 100.641 51.183 100.356C51.183 100.221 51.208 100.072 51.2529 99.9072C51.2978 99.7426 51.3676 99.5331 51.4524 99.2786C51.5372 99.0242 51.6071 98.7997 51.6569 98.6102C51.7068 98.4206 51.7268 98.2211 51.7268 98.0115C51.7268 97.7122 51.6769 97.4528 51.5721 97.2433C51.4674 97.0338 51.3277 96.8691 51.1481 96.7544C50.9685 96.6446 50.759 96.5898 50.5295 96.5898C50.1753 96.5898 49.9409 96.7145 49.8361 96.9639C49.7313 97.2134 49.5318 97.7821 49.2474 98.67C48.9681 99.563 48.6388 100.217 48.2697 100.631C47.9005 101.045 47.3517 101.254 46.6284 101.254C45.9899 101.254 45.4361 101.095 44.9522 100.78C44.4733 100.466 44.1042 100.042 43.8447 99.5081C43.5853 98.9743 43.4556 98.4056 43.4556 97.787L43.4506 97.7821Z" fill="#F2F2F2"/>
<path d="M52.5598 93.4219H44.6229C44.2887 93.4219 44.0193 93.3221 43.8297 93.1275C43.6352 92.928 43.5404 92.6786 43.5404 92.3743C43.5404 92.07 43.6352 91.8155 43.8247 91.621C44.0143 91.4264 44.2787 91.3316 44.6279 91.3316H52.5648C52.909 91.3316 53.1784 91.4264 53.368 91.621C53.5576 91.8155 53.6523 92.065 53.6523 92.3743C53.6523 92.6836 53.5576 92.928 53.363 93.1275C53.1684 93.3271 52.904 93.4219 52.5698 93.4219H52.5598Z" fill="#F2F2F2"/>
<path d="M52.8394 87.5903L45.0571 90.6533C44.8825 90.7181 44.7129 90.748 44.5383 90.748C44.254 90.748 44.0145 90.6383 43.82 90.4238C43.6254 90.2093 43.5356 89.9549 43.5356 89.6705C43.5356 89.2614 43.7651 88.9472 44.2191 88.7227L50.0308 86.5626L44.2191 84.3925C43.7651 84.178 43.5356 83.8637 43.5356 83.4447C43.5356 83.1554 43.6304 82.9009 43.82 82.6864C44.0095 82.4719 44.249 82.3672 44.5383 82.3672C44.7179 82.3672 44.8875 82.4021 45.0571 82.4719L52.8394 85.525C53.0938 85.6297 53.2934 85.7594 53.4331 85.9091C53.5727 86.0587 53.6426 86.2782 53.6426 86.5626C53.6426 86.8469 53.5728 87.0614 53.4381 87.2061C53.3034 87.3508 53.1038 87.4805 52.8394 87.5903Z" fill="#F2F2F2"/>
<path d="M53.7323 77.3884C53.7323 78.3163 53.5078 79.1444 53.0539 79.8728C52.5999 80.6011 51.9813 81.1698 51.1931 81.5789C50.4049 81.988 49.5369 82.1875 48.589 82.1875C47.8657 82.1875 47.1922 82.0728 46.5637 81.8383C45.9351 81.6038 45.3863 81.2746 44.9224 80.8456C44.4535 80.4165 44.0893 79.9077 43.8349 79.319C43.5805 78.7304 43.4508 78.0869 43.4508 77.3835C43.4508 76.6801 43.5855 76.0515 43.8499 75.4578C44.1142 74.8642 44.4834 74.3554 44.9523 73.9263C45.4213 73.4973 45.97 73.1681 46.5936 72.9286C47.2172 72.6891 47.8856 72.5744 48.594 72.5744C49.3024 72.5744 49.9759 72.6891 50.6044 72.9136C51.228 73.1431 51.7768 73.4724 52.2507 73.9064C52.7246 74.3404 53.0888 74.8542 53.3482 75.4429C53.6076 76.0315 53.7373 76.6801 53.7373 77.3785L53.7323 77.3884ZM51.8017 77.3835C51.8017 76.9544 51.7169 76.5753 51.5473 76.2411C51.3777 75.9068 51.1432 75.6324 50.8389 75.408C50.5346 75.1835 50.1954 75.0188 49.8113 74.9141C49.4271 74.8093 49.0181 74.7544 48.589 74.7544C48.0054 74.7544 47.4716 74.8542 46.9877 75.0538C46.4988 75.2533 46.1097 75.5526 45.8204 75.9517C45.526 76.3508 45.3813 76.8247 45.3813 77.3835C45.3813 77.9422 45.526 78.4161 45.8204 78.8152C46.1147 79.2143 46.5038 79.5136 46.9877 79.7131C47.4766 79.9127 48.0104 80.0125 48.589 80.0125C49.502 80.0125 50.2652 79.788 50.8788 79.334C51.4924 78.88 51.8017 78.2315 51.8017 77.3835Z" fill="#F2F2F2"/>
</g>
<defs>
<clipPath id="clip0_269_4">
<rect width="215" height="215" fill="white" transform="matrix(-1 0 0 -1 215 215)"/>
</clipPath>
</defs>
</svg>
