<svg width="27" height="27" viewBox="0 0 27 27" fill="none" xmlns="http://www.w3.org/2000/svg">
<path d="M23.6752 10.57C23.5595 11.3887 21.5996 13.915 19.3462 16.1437C19.2056 16.2801 19.1229 16.4579 19.094 16.644C19.0774 16.7556 19.0816 16.8714 19.1105 16.983C19.5612 18.7568 19.8093 20.9069 19.6315 22.1225C19.5736 22.5318 19.4661 22.8337 19.3048 22.9825C18.5854 23.4125 15.5505 22.3086 13.2846 21.0516C13.0531 20.9234 12.7761 20.9069 12.5321 21.0061C9.83214 22.0811 6.90475 22.7014 6.39618 22.3168C6.1729 22.0563 6.1605 21.3286 6.28867 20.4273C6.42925 19.4432 6.73523 18.2482 7.11149 17.2146C7.13216 17.1567 7.1487 17.0988 7.15697 17.0368C7.19005 16.797 7.12389 16.553 6.97091 16.3628C5.36663 14.3699 3.63004 11.8642 3.31993 10.9339C4.51074 10.2682 8.14931 9.27174 9.47242 8.93682C9.72051 8.87894 9.93138 8.70941 10.043 8.482C11.085 6.4105 12.5652 3.97514 13.3095 3.32185C13.9752 3.97927 15.3355 6.44771 16.3071 8.59364C16.4395 8.88307 16.7206 9.08153 17.039 9.10634C20.0822 9.35443 23.1047 10.0119 23.6752 10.537C23.6752 10.5494 23.6752 10.5576 23.6752 10.57ZM26.9624 11.0414C26.9706 10.9835 26.9789 10.8926 26.9872 10.8305C27.0781 9.80512 26.6895 8.79624 25.9328 8.09747C24.5642 6.83224 21.2482 6.22443 18.726 5.935C17.9776 4.41342 16.6999 1.99459 15.6415 0.952638C14.3969 -0.271244 12.4205 -0.320858 11.1139 0.832734C9.89003 1.91603 8.40153 4.49611 7.59939 5.99702C5.85453 6.46838 3.02637 7.29533 1.69498 8.03959C0.768799 8.56056 0.177531 9.4702 0.0328155 10.4625C-0.037475 10.9587 0.00387239 11.4756 0.169262 11.98C0.66543 13.4726 2.45164 15.9411 3.56388 17.3965C3.31166 18.2731 3.11733 19.1579 3.00156 19.9518C2.79896 21.3534 2.72039 23.1314 3.87812 24.4793C4.03111 24.6571 4.20063 24.8184 4.38669 24.9589C4.96556 25.3972 6.6608 26.6872 12.6892 24.4958C15.4885 25.9182 18.8955 27.0842 21.0001 25.8314C21.1944 25.7156 21.3722 25.5833 21.5376 25.4303C22.286 24.7481 22.7367 23.8177 22.9103 22.5897C23.1212 21.1095 22.9227 19.1579 22.6168 17.5329C24.2831 15.7798 26.6729 12.9723 26.95 11.0373L26.9624 11.0414Z" fill="#231F20"/>
<path d="M13.668 2.96582C14.0623 3.35041 14.602 4.19493 15.1416 5.15332C15.6936 6.1337 16.2821 7.30052 16.7715 8.3877L16.8252 8.47461C16.8904 8.55231 16.9853 8.60241 17.0869 8.61035H17.0889C18.6304 8.73603 20.1689 8.96543 21.3994 9.23145C22.0138 9.36427 22.56 9.50779 22.9951 9.65527C23.4039 9.79382 23.7946 9.96125 24.0234 10.1719L24.2041 10.3389L24.1826 10.584C24.1667 10.761 24.1027 10.9445 24.0293 11.1123C23.9527 11.2874 23.8498 11.4807 23.7275 11.6846C23.4827 12.0927 23.1445 12.5737 22.7432 13.0928C21.9392 14.1326 20.8584 15.3543 19.7031 16.4971L19.7012 16.499C19.6076 16.5911 19.569 16.7257 19.6006 16.8584L19.7109 17.3223C19.9586 18.4177 20.1297 19.6065 20.1787 20.627C20.2066 21.2087 20.1961 21.7528 20.1309 22.2012C20.0982 22.4253 20.05 22.6391 19.9795 22.8271C19.9106 23.0107 19.808 23.2036 19.6465 23.3506L19.6094 23.3838L19.5664 23.4102C19.3773 23.5232 19.1586 23.5617 18.9648 23.5723C18.7636 23.5832 18.541 23.5665 18.3105 23.5322C17.8493 23.4636 17.301 23.3166 16.7207 23.1221C15.5574 22.7322 14.2041 22.1293 13.0469 21.4873C12.9473 21.4324 12.829 21.4257 12.7256 21.4678L12.7217 21.4688C11.348 22.0157 9.91455 22.4486 8.75195 22.6963C8.17206 22.8198 7.64576 22.9001 7.22168 22.9229C7.01044 22.9342 6.81039 22.9324 6.63477 22.9092C6.47295 22.8878 6.26719 22.8406 6.09961 22.7139L6.31543 22.4277L6.05176 22.6729L6.04785 22.6689L6.19629 22.4971L6.02539 22.6445C5.89503 22.4924 5.8254 22.3072 5.78516 22.1416C5.74358 21.9704 5.72391 21.7799 5.71777 21.584C5.70553 21.1918 5.74757 20.7225 5.82422 20.2266C5.97792 19.2321 6.28276 18.0627 6.65039 17.0469L6.65234 17.043C6.69794 16.9202 6.67548 16.783 6.5918 16.6797L6.59082 16.6787C5.78087 15.6725 4.93744 14.537 4.25586 13.5332C3.91514 13.0314 3.6121 12.5583 3.37305 12.1484C3.13889 11.747 2.94931 11.3791 2.85449 11.0947L2.72363 10.7021L3.08496 10.5C3.73367 10.1362 4.99428 9.70687 6.20801 9.33594C7.44176 8.95889 8.69175 8.62309 9.35938 8.4541L9.36816 8.45215C9.46847 8.42867 9.55727 8.35788 9.60352 8.26367L9.60547 8.25879C10.1349 7.21045 10.7741 6.07057 11.376 5.10742C11.9643 4.16602 12.5545 3.33135 12.9873 2.94922L13.3359 2.64258L13.668 2.96582Z" fill="#FFDF4F" stroke="#FFDF4F"/>
</svg>
